<svg xmlns="http://www.w3.org/2000/svg" viewBox="0 0 1000 1000"><defs><style>.cls-1{fill:#fff}</style></defs><title>logo</title><path class="cls-1" d="M450 .5H133.83A66.55 66.55 0 0 0 67.1 66.86V165h680v416c0 141.74-78.84 252.73-247.77 252.73-167.53 0-249.18-81.57-249.18-242h183v146.9h71.8c61.42 0 111.22-49.52 111.22-110.6V253.46h-183v169.1h-183v-169.1H67.1v338.2c0 264.76 180.2 407.84 432.2 407.84C771 999.5 932.9 823 932.9 581V66.86A66.55 66.55 0 0 0 866.17.5z" id="White_on_Black" data-name="White on Black"/></svg>