<svg xmlns="http://www.w3.org/2000/svg" viewBox="0 0 1000 1000"><style type="text/css">  
	.st0{fill:#FFFFFF;}
</style><path mode="multiply" class="st0" d="M516.1 1000h-32.3c-225.8 0-400.5-182.9-400.5-408.6v-277l150.4 0v118.3c0 5.9 4.8 10.8 10.8 10.8h161.4c5.9 0 10.8-4.8 10.8-10.8V314.4H621v311.8c0 59.4-48.2 107.5-107.6 107.5h-86.1c-5.9 0-10.8-4.8-10.8-10.8V604.7c0-5.9-4.8-10.8-10.8-10.8H244.5c-5.9 0-10.8 4.8-10.8 10.8v21.5c0 118.8 96.3 215.1 215.2 215.1l96.8 0c118.8 0 215.2-96.3 215.2-215.1V163.9H233.7v53.8H83.3l0-196.1C83.3 9.6 93 0 104.9 0h790.3c11.9 0 21.5 9.6 21.5 21.5v569.9C916.7 817.1 741.9 1000 516.1 1000z"/></svg>