<svg xmlns="http://www.w3.org/2000/svg" viewBox="0 0 1000 1000"><defs><style>#logo{stroke-dasharray:6285;stroke-dashoffset:0;-moz-animation:outline-logo 2.5s linear forwards;-webkit-animation:outline-logo 2.5s linear forwards;-o-animation:outline-logo 2.5s linear forwards;animation:outline-logo 2.5s linear forwards;fill:transparent;stroke:#fff;stroke-width:10px;stroke-miterlimit:5px;-moz-transition:.2s ease;-webkit-transition:.2s ease;-o-transition:.2s ease;transition:.2s ease}@-moz-keyframes outline-logo{0%{stroke-dashoffset:6285}80%{stroke-dashoffset:0;fill:transparent}to{fill:#fff}}@-webkit-keyframes outline-logo{0%{stroke-dashoffset:6285}80%{stroke-dashoffset:0;fill:transparent}to{fill:#fff}}@-o-keyframes outline-logo{0%{stroke-dashoffset:6285}80%{stroke-dashoffset:0;fill:transparent}to{fill:#fff}}@keyframes outline-logo{0%{stroke-dashoffset:6285}80%{stroke-dashoffset:0;fill:transparent}to{fill:#fff}}</style></defs><path id="logo" d="M454.975 50H170.116C136.915 50 110 76.767 110 109.786v88.389h612.584v374.759c0 127.696-71.024 227.685-223.219 227.685-150.927 0-224.488-73.486-224.488-218.047h164.878v132.342h64.684c55.336 0 100.194-44.612 100.194-99.644V277.889H439.755v152.342H274.878V277.889H110v304.682C110 821.099 272.341 950 499.365 950 744.146 950 890 790.982 890 572.935V109.786C890 76.767 863.085 50 829.884 50H454.975z"/></svg>